<svg width="24" height="24" viewBox="0 0 24 24" fill="none" xmlns="http://www.w3.org/2000/svg">
<path d="M2.98535 9C2.98535 7.89543 3.88078 7 4.98535 7H6.46117C7.09229 7 7.68638 6.70211 8.0639 6.19635L9.10348 4.80365C9.481 4.29789 10.0751 4 10.7062 4H13.1792C13.8103 4 14.4044 4.29789 14.7819 4.80365L15.8215 6.19635C16.199 6.70211 16.7931 7 17.4242 7H18.9C20.0046 7 20.9 7.89543 20.9 9V18C20.9 19.1046 20.0046 20 18.9 20H4.98535C3.88078 20 2.98535 19.1046 2.98535 18V9Z" stroke="white" stroke-width="2" stroke-linecap="round" stroke-linejoin="round"/>
<ellipse cx="11.943" cy="13" rx="3.98104" ry="4" stroke="white" stroke-width="2" stroke-linecap="round" stroke-linejoin="round"/>
</svg>
