<svg width="24" height="18" viewBox="0 0 24 18" fill="none" xmlns="http://www.w3.org/2000/svg">
  <g clip-path="url(#clip0_3970_13490)">
    <path d="M20.3303 1.50747C18.7535 0.793091 17.0889 0.286285 15.3789 0C15.1449 0.413926 14.9332 0.8398 14.7447 1.27584C12.9233 1.00424 11.071 1.00424 9.24963 1.27584C9.06097 0.839845 8.84926 0.413976 8.61537 0C6.90435 0.288702 5.23861 0.796712 3.6602 1.51121C0.526645 6.099 -0.322812 10.5729 0.101917 14.9832C1.937 16.3249 3.99099 17.3453 6.17459 18C6.66628 17.3456 7.10135 16.6514 7.47521 15.9247C6.76512 15.6622 6.07977 15.3384 5.42707 14.957C5.59885 14.8337 5.76685 14.7067 5.92919 14.5834C7.82839 15.4673 9.90126 15.9255 12 15.9255C14.0987 15.9255 16.1716 15.4673 18.0708 14.5834C18.235 14.7161 18.403 14.8431 18.5729 14.957C17.9189 15.339 17.2323 15.6635 16.521 15.9265C16.8944 16.6529 17.3295 17.3465 17.8216 18C20.0071 17.3479 22.0626 16.328 23.898 14.9851C24.3964 9.87049 23.0467 5.43773 20.3303 1.50747ZM8.0132 12.2709C6.82962 12.2709 5.8518 11.208 5.8518 9.90037C5.8518 8.59278 6.79564 7.52055 8.00942 7.52055C9.2232 7.52055 10.1935 8.59278 10.1727 9.90037C10.1519 11.208 9.21943 12.2709 8.0132 12.2709ZM15.9868 12.2709C14.8013 12.2709 13.8273 11.208 13.8273 9.90037C13.8273 8.59278 14.7711 7.52055 15.9868 7.52055C17.2024 7.52055 18.1652 8.59278 18.1444 9.90037C18.1236 11.208 17.193 12.2709 15.9868 12.2709Z" fill="#5865F2"/>
  </g>
  <defs>
    <clipPath id="clip0_3970_13490">
      <rect width="24" height="18" fill="white"/>
    </clipPath>
  </defs>
</svg>
