<svg xmlns="http://www.w3.org/2000/svg" width="24" height="24" viewBox="0 0 24 24" fill="none">
  <g clip-path="url(#clip0_6344_1685)">
    <path d="M5.03229 11.3977C5.03231 11.2652 5.05852 11.134 5.10938 11.0116C5.16025 10.8893 5.23479 10.7782 5.32872 10.6847C5.42267 10.5912 5.53412 10.5172 5.65674 10.4669C5.77935 10.4166 5.91069 10.3911 6.04322 10.3917L7.71932 10.3972C7.98653 10.3972 8.24283 10.5033 8.43178 10.6923C8.62076 10.8812 8.72692 11.1375 8.72692 11.4048V17.7423C8.91561 17.6863 9.15795 17.6266 9.42312 17.5642C9.60732 17.5209 9.77147 17.4167 9.88897 17.2684C10.0065 17.1201 10.0704 16.9364 10.0703 16.7472V8.88574C10.0703 8.61848 10.1765 8.36217 10.3654 8.17318C10.5544 7.98418 10.8107 7.878 11.0779 7.87794H12.7574C13.0246 7.878 13.2809 7.98418 13.4699 8.17318C13.6588 8.36217 13.765 8.61848 13.765 8.88574V16.1819C13.765 16.1819 14.1855 16.0118 14.595 15.8389C14.7472 15.7746 14.877 15.6669 14.9683 15.5292C15.0597 15.3916 15.1084 15.2301 15.1086 15.0649V6.36672C15.1086 6.09952 15.2147 5.84325 15.4036 5.65429C15.5925 5.46533 15.8488 5.35917 16.116 5.35911H17.7954C18.0627 5.35911 18.3189 5.46526 18.5079 5.65423C18.6969 5.84319 18.803 6.09948 18.803 6.36672V13.5294C20.259 12.4742 21.7345 11.2052 22.9055 9.67911C23.0754 9.45761 23.1878 9.19749 23.2327 8.922C23.2776 8.6465 23.2536 8.36416 23.1628 8.10018C22.6208 6.54073 21.7593 5.11158 20.6333 3.9042C19.5072 2.69685 18.1415 1.73783 16.6236 1.08856C15.1057 0.439285 13.4689 0.114043 11.8181 0.133649C10.1672 0.153254 8.53865 0.517275 7.03658 1.20241C5.5345 1.88755 4.19198 2.87872 3.09494 4.11249C1.99791 5.34625 1.17052 6.79546 0.665717 8.36736C0.160916 9.93925 -0.0101776 11.5992 0.163383 13.241C0.336944 14.8828 0.85134 16.4703 1.67365 17.9019C1.8169 18.1489 2.02765 18.3498 2.28113 18.4812C2.53461 18.6125 2.82031 18.6688 3.10468 18.6434C3.42234 18.6155 3.81785 18.5759 4.2881 18.5207C4.4928 18.4974 4.68179 18.3997 4.81906 18.2461C4.95635 18.0925 5.03231 17.8937 5.03249 17.6877L5.03229 11.3977Z" fill="#21325B"/>
    <path d="M4.99512 21.5625C6.76532 22.8504 8.85732 23.6234 11.0396 23.7961C13.2219 23.9686 15.4095 23.5343 17.3602 22.5407C19.3109 21.5471 20.9487 20.0334 22.0925 18.1668C23.2361 16.3002 23.8411 14.1536 23.8406 11.9644C23.8406 11.6913 23.8279 11.421 23.8097 11.1523C19.4743 17.6183 11.4695 20.6412 4.99549 21.5616" fill="#979695"/>
  </g>
  <defs>
    <clipPath id="clip0_6344_1685">
      <rect width="24" height="24" fill="white"/>
    </clipPath>
  </defs>
</svg>