<svg width="88" height="30" viewBox="0 0 88 30" fill="none" xmlns="http://www.w3.org/2000/svg">
<g clip-path="url(#clip0_1559_1966)">
<path d="M87.2796 0.633545H1.03857V28.9997H87.2796V0.633545Z" fill="white"/>
<path d="M87.1849 0.72817V28.9052H1.13339V0.72817H87.1849ZM87.3745 0.539062H0.943848V29.0943H87.3745V0.539062Z" fill="black"/>
<path d="M48.2514 29.9998C32.4608 29.9998 16.6682 29.9998 0.877574 29.9998C0.0720255 29.9998 0.00189541 29.9298 0.00189541 29.1318C0 19.7161 0 10.3023 0 0.88667C0 0.0772904 0.0796071 -0.000243677 0.9079 -0.000243677C32.4778 -0.000243677 55.5184 -0.000243677 87.0864 -0.000243677C87.2437 -0.000243677 87.4029 -0.00969905 87.5565 0.0129938C87.8199 0.0527064 87.9791 0.209666 87.9943 0.485762C88 0.603009 87.9981 0.720256 87.9981 0.837502C87.9981 10.2796 87.9981 19.7199 87.9981 29.162C87.9981 29.9203 87.9223 29.996 87.1736 29.996C71.3564 29.996 64.0686 29.996 48.2495 29.996L48.2514 29.9998ZM86.9954 1.00959H1.00836V29.0126H86.9954V1.00959Z" fill="black"/>
<path d="M16.2645 20.5088C16.1394 20.5749 16.0674 20.6014 16.0068 20.6468C13.1864 22.7478 9.10368 22.0443 7.01305 18.9335C4.91862 15.8189 5.59718 11.6056 8.61656 9.37978C12.1439 6.77766 16.8786 8.40021 18.2585 12.4868C18.4007 12.9066 18.359 12.952 17.906 12.9539C17.29 12.9539 16.6739 12.9482 16.0579 12.9577C15.8343 12.9615 15.694 12.8953 15.6049 12.6759C14.7293 10.5409 11.9904 9.9698 10.1367 11.3276C7.71625 13.0995 7.85082 17.205 10.3793 18.8144C12.2444 20.0019 14.6648 19.3231 15.6239 17.3412C15.6732 17.2391 15.7073 17.1294 15.7717 16.963C15.586 16.946 15.4514 16.9214 15.3187 16.9214C14.4412 16.9176 13.5636 16.9081 12.686 16.9252C12.3543 16.9327 12.2482 16.8079 12.2614 16.4921C12.2804 16.0099 12.2747 15.5258 12.2633 15.0436C12.2576 14.7845 12.3429 14.6653 12.6235 14.6672C14.4961 14.6748 16.3707 14.6748 18.2433 14.6672C18.5428 14.6672 18.6224 14.7939 18.6205 15.07C18.6129 17.171 18.6129 19.2739 18.6205 21.3749C18.6205 21.6529 18.5144 21.7436 18.2509 21.7342C17.8586 21.7209 17.4624 21.755 17.0739 21.719C16.9298 21.7058 16.7479 21.5772 16.6739 21.4486C16.5128 21.1687 16.4124 20.8567 16.2664 20.5106L16.2645 20.5088Z" fill="black"/>
<path d="M70.206 12.6342C70.3236 12.5813 70.4089 12.5567 70.479 12.5075C72.473 11.1403 74.8744 11.8418 76.1918 13.4228C78.271 15.9171 77.5621 19.8884 74.7247 21.3577C73.2482 22.1217 71.7679 22.0158 70.3653 21.0911C70.2667 21.0268 70.1719 20.9568 70.0734 20.8925C70.0525 20.8793 70.0241 20.8793 69.9521 20.8604C69.8762 21.0079 69.7701 21.1573 69.7227 21.3237C69.6242 21.6622 69.41 21.7586 69.0764 21.7341C68.7371 21.7095 68.394 21.7151 68.0548 21.7322C67.7761 21.7454 67.6719 21.6282 67.7003 21.3634C67.7079 21.2991 67.7003 21.2329 67.7003 21.1686C67.7003 17.0442 67.7003 12.9179 67.7003 8.79343C67.7003 8.419 67.8867 8.23178 68.2595 8.23178C68.758 8.23178 69.2565 8.24691 69.7531 8.22611C70.0772 8.21287 70.1871 8.32823 70.1833 8.6516C70.1681 9.85243 70.1776 11.0533 70.1795 12.2541C70.1795 12.3657 70.1947 12.4791 70.206 12.6342ZM74.9048 16.8173C74.9048 15.2628 73.9135 14.1508 72.4919 14.1376C71.4532 14.1282 70.6723 14.5877 70.2231 15.5294C69.736 16.5506 69.9198 17.9973 70.6609 18.7197C70.949 19.0015 71.3262 19.2511 71.7091 19.3664C73.4207 19.8884 74.9048 18.6856 74.9067 16.8173H74.9048Z" fill="black"/>
<path d="M39.6424 21.721C39.0851 21.721 38.5374 21.7323 37.9934 21.7096C37.9043 21.7058 37.8001 21.5564 37.7394 21.4524C37.6314 21.2652 37.5499 21.061 37.4475 20.8454C37.3452 20.8927 37.2656 20.9097 37.2106 20.957C35.2697 22.5511 32.0892 22.0046 30.6487 19.3836C29.3219 16.9706 30.1104 13.7501 32.4342 12.3923C33.8917 11.5394 35.372 11.5564 36.8239 12.4547C36.9225 12.5152 37.021 12.5757 37.1878 12.6759C37.203 12.4887 37.222 12.3564 37.222 12.224C37.2239 11.0364 37.2314 9.8469 37.2182 8.65931C37.2144 8.3435 37.3035 8.21301 37.639 8.22625C38.1886 8.24895 38.7402 8.24138 39.2899 8.22625C39.5666 8.21869 39.6879 8.29622 39.6879 8.59879C39.6803 12.8688 39.6822 17.137 39.6822 21.407C39.6822 21.4959 39.6632 21.5829 39.6462 21.721H39.6424ZM32.4929 16.6794C32.4986 18.1033 33.1506 19.0735 34.2196 19.3798C35.4649 19.7372 36.6912 19.1888 37.1973 18.0485C37.7716 16.7588 37.33 15.1079 36.2193 14.4744C35.4081 14.011 34.5608 13.9997 33.7439 14.4498C32.8227 14.9585 32.4986 15.8113 32.4929 16.6812V16.6794Z" fill="black"/>
<path d="M63.1683 20.8435C62.939 20.9929 62.7191 21.1536 62.4822 21.286C61.2047 22.0008 59.8703 22.0594 58.5549 21.4675C56.7599 20.66 56.5382 18.0125 58.1341 16.8249C58.9359 16.2293 59.8779 15.9967 60.8464 15.8775C61.4302 15.8057 62.0197 15.7659 62.6073 15.7508C62.9143 15.7414 62.9901 15.6298 62.9522 15.3461C62.8669 14.7051 62.4329 14.2172 61.7903 14.0734C61.0739 13.9127 60.3442 14.1566 60.039 14.724C59.8779 15.0228 59.6902 15.1249 59.3604 15.106C58.8638 15.0795 58.3653 15.1022 57.8669 15.0984C57.4214 15.0965 57.3759 15.0436 57.4878 14.6237C57.865 13.2224 58.807 12.3752 60.1717 11.9724C62.0254 11.424 63.8071 11.9857 64.7908 13.4116C65.2608 14.0923 65.4428 14.8601 65.4466 15.6714C65.4561 17.5644 65.4466 19.4554 65.4561 21.3484C65.4561 21.6358 65.3651 21.7625 65.0732 21.7342C64.9689 21.7247 64.8647 21.7342 64.7586 21.7342C64.4174 21.7304 64.0231 21.8306 63.754 21.6888C63.5 21.5545 63.3768 21.1687 63.1645 20.8454L63.1683 20.8435ZM62.0349 17.4982C61.4871 17.5795 60.8787 17.6305 60.2797 17.8007C59.8096 17.935 59.5576 18.2981 59.5557 18.8049C59.5557 19.2361 59.8495 19.6426 60.293 19.8204C61.3753 20.2535 62.7627 19.4668 62.9446 18.3132C63.0773 17.4774 63.0527 17.449 62.2054 17.4793" fill="black"/>
<path d="M47.1068 14.9869C47.1068 12.9123 47.1068 10.8359 47.1068 8.76143C47.1068 8.23383 47.1087 8.23193 47.6204 8.23193C48.1303 8.23193 48.6421 8.23193 49.1519 8.23193C49.6789 8.23193 49.6807 8.23193 49.6807 8.7482C49.6807 11.842 49.6807 14.9339 49.6807 18.0277C49.6807 18.2754 49.7016 18.5251 49.677 18.7709C49.6391 19.1548 49.7642 19.2909 50.1755 19.2853C51.8775 19.2607 53.5815 19.2739 55.2836 19.2758C56.1251 19.2758 56.0247 19.2058 56.0285 20.0001C56.0304 20.418 56.0057 20.8378 56.0361 21.252C56.0645 21.6283 55.9394 21.7437 55.5565 21.7399C53.4356 21.7229 51.3127 21.7323 49.1917 21.7323C48.6288 21.7323 48.0659 21.7191 47.5029 21.738C47.1921 21.7474 47.0992 21.6359 47.1011 21.3314C47.1106 19.2172 47.1068 17.103 47.1068 14.9887V14.9869Z" fill="black"/>
<path d="M25.7547 14.9848C25.7547 12.8971 25.7623 10.8074 25.7471 8.71967C25.7452 8.34713 25.8494 8.2053 26.2342 8.2261C26.7441 8.25447 27.2577 8.25447 27.7657 8.2261C28.1429 8.2053 28.2282 8.35658 28.2263 8.70265C28.2149 11.6263 28.2206 14.5499 28.2206 17.4753C28.2206 18.7537 28.2111 20.034 28.2263 21.3123C28.2301 21.6376 28.1258 21.7492 27.8017 21.7378C27.252 21.717 26.7005 21.7189 26.1508 21.7378C25.8419 21.7473 25.7471 21.6376 25.7471 21.3312C25.7585 19.217 25.7528 17.1009 25.7528 14.9867L25.7547 14.9848Z" fill="black"/>
<path d="M20.9554 16.8249C20.9554 15.3253 20.9649 13.8238 20.9478 12.3241C20.9441 11.9781 21.0578 11.8646 21.399 11.8797C21.9486 11.9024 22.4983 11.8949 23.048 11.8835C23.3095 11.8778 23.4232 11.9573 23.4232 12.239C23.4157 15.2912 23.4176 18.3434 23.4232 21.3956C23.4232 21.6169 23.3645 21.736 23.1162 21.7322C22.5002 21.7247 21.8861 21.7209 21.2701 21.7322C20.9554 21.7379 20.9535 21.5488 20.9535 21.3238C20.9573 19.8241 20.9535 18.3245 20.9535 16.823L20.9554 16.8249Z" fill="black"/>
<path d="M80.7558 21.8382C80.0109 21.8325 79.3759 21.2028 79.374 20.4653C79.3721 19.7032 80.009 19.0735 80.7785 19.0791C81.5234 19.0848 82.1603 19.7145 82.166 20.4502C82.1717 21.1953 81.512 21.8458 80.7539 21.8401L80.7558 21.8382Z" fill="black"/>
<path d="M22.2026 7.91975C22.9551 7.9292 23.5995 8.59486 23.5806 9.34372C23.5616 10.0794 22.9077 10.7053 22.1704 10.694C21.4028 10.6807 20.7792 10.0359 20.7962 9.27186C20.8133 8.53434 21.4596 7.91218 22.2026 7.91975Z" fill="black"/>
</g>
<defs>
<clipPath id="clip0_1559_1966">
<rect width="88" height="30" fill="white"/>
</clipPath>
</defs>
</svg>
