<svg width="24" height="24" viewBox="0 0 24 24" fill="none" xmlns="http://www.w3.org/2000/svg">
  <path
      d="M18 10.6562V8.625C18 7.72754 17.2538 7 16.3333 7H4.66667C3.74619 7 3 7.72754 3 8.625V12.6875C3 13.585 3.74619 14.3125 4.66667 14.3125H9.5625M16.3333 15.125V13.5C16.3333 12.6025 15.5871 11.875 14.6667 11.875C13.7462 11.875 13 12.6025 13 13.5V15.125M12.1667 20H17.1667C17.6269 20 18 19.6362 18 19.1875V15.9375C18 15.4888 17.6269 15.125 17.1667 15.125H12.1667C11.7064 15.125 11.3333 15.4888 11.3333 15.9375V19.1875C11.3333 19.6362 11.7064 20 12.1667 20Z"
      stroke="#575757" stroke-width="2" stroke-linecap="round" stroke-linejoin="round"/>
  <circle cx="6.5" cy="10.5" r="1.5" fill="#575757"/>
  <circle cx="11.5" cy="10.5" r="1.5" fill="#575757"/>
</svg>