<svg xmlns="http://www.w3.org/2000/svg" width="32" height="38" viewBox="0 0 32 38" fill="none">
  <path d="M24 13.3333V7.66667C24 4.53705 21.3137 2 18 2H14C10.6863 2 8 4.53705 8 7.66667V13.3333M24 13.3333H8M24 13.3333C27.3137 13.3333 30 15.8704 30 19V30.3333C30 33.4629 27.3137 36 24 36H8C4.68629 36 2 33.4629 2 30.3333V19C2 15.8704 4.68629 13.3333 8 13.3333M16 22.7778V28.4444M18 22.7778C18 23.821 17.1046 24.6667 16 24.6667C14.8954 24.6667 14 23.821 14 22.7778C14 21.7346 14.8954 20.8889 16 20.8889C17.1046 20.8889 18 21.7346 18 22.7778Z" stroke="white" stroke-width="4" stroke-linecap="round" stroke-linejoin="round"/>
</svg>