<svg width="40" height="47" viewBox="0 0 40 47" fill="none" xmlns="http://www.w3.org/2000/svg">
<path d="M30.2857 16.3333V9.16667C30.2857 5.20863 26.8319 2 22.5714 2H17.4286C13.1681 2 9.71429 5.20863 9.71429 9.16667V16.3333M30.2857 16.3333H9.71429M30.2857 16.3333C34.5462 16.3333 38 19.542 38 23.5V37.8333C38 41.7914 34.5462 45 30.2857 45H9.71429C5.4538 45 2 41.7914 2 37.8333V23.5C2 19.542 5.4538 16.3333 9.71429 16.3333M20 28.2778V35.4444M22.5714 28.2778C22.5714 29.5971 21.4202 30.6667 20 30.6667C18.5798 30.6667 17.4286 29.5971 17.4286 28.2778C17.4286 26.9584 18.5798 25.8889 20 25.8889C21.4202 25.8889 22.5714 26.9584 22.5714 28.2778Z" stroke="white" stroke-width="4" stroke-linecap="round" stroke-linejoin="round"/>
</svg>
