<svg width="55" height="55" viewBox="0 0 55 55" fill="none" xmlns="http://www.w3.org/2000/svg">
<path d="M32.0843 48.125H22.9176M35.0176 24.4062L15.1718 36.1625C14.6689 36.4616 14.0707 36.557 13.4997 36.4291C12.9288 36.3013 12.4283 35.9599 12.101 35.475L9.37388 31.4646C9.05167 30.9786 8.92682 30.3881 9.02475 29.8133C9.12267 29.2385 9.43602 28.7227 9.90096 28.3708L28.2343 14.3458L35.0176 24.4062ZM26.5155 11.7791L36.6676 26.9729L26.5155 11.7791ZM44.3447 10.9312C42.9855 8.91737 40.8824 7.52548 38.4976 7.06139C36.1127 6.59731 33.6411 7.099 31.626 8.45622C29.7716 9.75859 28.4654 11.7016 27.9593 13.9104L35.476 25.0708C37.7394 25.4242 40.0531 24.9173 41.9614 23.65C42.9617 22.9769 43.8194 22.113 44.4854 21.1079C45.1514 20.1028 45.6125 18.9762 45.8424 17.7926C46.0723 16.609 46.0665 15.3917 45.8252 14.2104C45.5839 13.0291 45.112 11.907 44.4364 10.9083L44.3447 10.9312ZM27.501 29.7916V48.125V29.7916Z" stroke="white" stroke-width="4" stroke-linecap="round" stroke-linejoin="round"/>
</svg>
