<svg width="36" height="35" viewBox="0 0 36 35" fill="none" xmlns="http://www.w3.org/2000/svg">
<g clip-path="url(#clip0_1559_1950)">
<path d="M35.9998 6.12915V29.5547L18.2861 35.0082V11.5826L35.9998 6.12915Z" fill="#4F4F50"/>
<path d="M21.5999 25.7778C20.4954 26.1197 19.7017 25.2487 19.7017 23.7022C19.7017 22.1557 20.4872 20.7801 21.5917 20.4383C22.6554 20.1045 23.4654 21.0324 23.4654 22.5301C23.4654 24.0278 22.6554 25.4441 21.5917 25.7778H21.5999ZM21.5917 20.1778C20.659 20.4708 19.9554 21.4069 19.7017 22.6522V20.8859L19.5054 20.951L19.5217 28.8708L19.7181 28.8057V24.7359C19.9799 25.8185 20.6836 26.3231 21.6163 26.0301C22.7781 25.6638 23.6945 24.101 23.6863 22.465C23.6863 20.829 22.7699 19.8278 21.5999 20.1778" fill="#EE4036"/>
<path d="M26.182 18.7535C25.6584 18.9163 25.192 19.5919 24.9957 20.357V19.2419L24.7993 19.307V24.9233L25.012 24.8582V21.1221C25.012 20.2268 25.5439 19.2094 26.1984 19.0059C26.3211 18.9652 26.452 18.957 26.5748 18.9977V18.721C26.452 18.7047 26.3211 18.721 26.1984 18.7535" fill="#EE4036"/>
<path d="M28.9389 23.4988C27.8916 23.8244 27.0734 22.9046 27.0653 21.4232C27.0571 19.9418 27.8753 18.493 28.9225 18.1674C29.9698 17.8418 30.7962 18.7616 30.7962 20.2593C30.7962 21.7569 29.9698 23.1814 28.9225 23.5069H28.9389V23.4988ZM28.9144 17.9069C27.7689 18.2651 26.8525 19.836 26.8525 21.4802C26.8525 23.1244 27.7689 24.1174 28.9144 23.7593C30.0598 23.4011 30.9762 21.8383 30.9762 20.1941C30.9762 18.55 30.0516 17.5569 28.9062 17.9069" fill="#EE4036"/>
<path d="M32.4084 15.3267L32.212 15.3918V16.9953L31.3774 17.2557V17.5081L32.2038 17.2476V21.0243C32.2038 22.1964 32.6456 22.5057 33.3656 22.286C33.4638 22.2534 33.5538 22.2127 33.6356 22.1639V21.9115C33.5538 21.9685 33.4556 22.0174 33.3574 22.0418C32.7684 22.229 32.4002 22.0011 32.4002 20.9674V17.1906L33.6274 16.8162V16.5557L32.4002 16.9301V15.3267" fill="#EE4036"/>
<path d="M22.1484 32.1756C21.1011 32.5011 20.2829 31.5814 20.2747 30.1C20.2666 28.6186 21.0847 27.1697 22.132 26.8442C23.1793 26.5186 24.0056 27.4383 24.0056 28.936C24.0056 30.4337 23.1793 31.8581 22.132 32.1837H22.1484V32.1756ZM22.1238 26.5837C20.9784 26.9418 20.062 28.5128 20.062 30.1569C20.062 31.8011 20.9784 32.7942 22.1238 32.436C23.2693 32.0779 24.1856 30.5151 24.1856 28.8709C24.1856 27.2267 23.2529 26.2337 22.1156 26.5837" fill="#EE4036"/>
<path d="M26.91 25.0941C25.7645 25.4522 24.8481 27.0313 24.8481 28.6673C24.8481 30.3034 25.7645 31.3045 26.91 30.9464C27.7445 30.6859 28.53 29.7336 28.6854 28.6022L28.4809 28.6673C28.3336 29.6441 27.6381 30.4662 26.91 30.6859C25.8627 31.0115 25.0363 30.0918 25.0363 28.6022C25.0363 27.1127 25.8463 25.672 26.8936 25.3464C27.6463 25.1185 28.3091 25.5336 28.4645 26.3476L28.6691 26.2825C28.4972 25.3383 27.7363 24.8336 26.8854 25.0941" fill="#EE4036"/>
<path d="M31.5082 29.2617C30.461 29.5873 29.6428 28.6676 29.6346 27.178C29.6264 25.6885 30.4446 24.2478 31.4919 23.9222C32.5391 23.5966 33.3655 24.5164 33.3655 26.0141C33.3655 27.5117 32.5391 28.9362 31.4919 29.2617H31.5082ZM31.4837 23.6699C30.3382 24.028 29.4219 25.5989 29.4219 27.2431C29.4219 28.8873 30.3382 29.8803 31.4837 29.5222C32.6291 29.1641 33.5455 27.6013 33.5455 25.9571C33.5455 24.3129 32.621 23.3199 31.4755 23.6699" fill="#EE4036"/>
<path d="M34.8873 20.2024L34.6909 20.2675L34.7073 28.4152L34.9036 28.3501L34.8873 20.2024Z" fill="#EE4036"/>
<path d="M18.2864 34.9999L0 28.8708V5.45337L18.2864 11.5824V34.9999Z" fill="#343435"/>
<path d="M6.10349 8.97798C5.0644 8.62798 4.24622 8.81519 3.69803 9.4338V8.36752L1.03076 7.47217V16.8245L3.69803 17.7198V13.1129C3.69803 11.3791 4.73713 10.9477 6.02167 11.3791C6.35713 11.5012 6.6844 11.6559 6.98713 11.835V9.40124C6.70076 9.23845 6.40622 9.10007 6.09531 8.98612L6.10349 8.97798Z" fill="#EE4036"/>
<path d="M12.1338 18.1594C10.8493 17.7361 9.81019 16.3768 9.81019 15.0745C9.81019 13.7722 10.8493 13.121 12.1338 13.5524C13.4184 13.9838 14.4575 15.3431 14.4575 16.6373C14.4575 17.9315 13.4347 18.5989 12.1256 18.1594H12.1338ZM11.512 10.7931C9.11474 9.98727 7.2002 11.5175 7.2002 14.2036C7.2002 16.8896 9.11474 19.7222 11.512 20.528C12.8211 20.9675 13.8193 20.7477 14.4656 19.9908V21.3175L17.1329 22.2129V12.8605L14.4656 11.9652V13.3001C13.8438 12.1117 12.7802 11.2082 11.512 10.7849V10.7931Z" fill="#EE4036"/>
<path d="M3.70634 19.4371L1.03906 18.5417V27.8859L3.70634 28.7813V19.429V19.4371Z" fill="#EE4036"/>
<path d="M13.3607 22.4815C12.2971 22.1233 11.4298 22.3513 10.8489 23.0513V21.8385L8.18164 20.9431V30.2873L10.8489 31.1827V26.2257C10.8489 25.0047 11.5689 24.4431 12.6816 24.8175C13.2298 25.0047 13.6962 25.3629 14.0235 25.835C14.3507 26.3071 14.5225 26.8768 14.5144 27.4547V32.4036L17.1816 33.2989V28.0082C17.1816 25.371 15.7416 23.2792 13.3607 22.4815Z" fill="#EE4036"/>
<path d="M18.2864 11.5826L0 5.45349L17.7136 0L36 6.12907L18.2864 11.5826Z" fill="#424244"/>
</g>
<defs>
<clipPath id="clip0_1559_1950">
<rect width="36" height="35" fill="white"/>
</clipPath>
</defs>
</svg>
