<svg width="16" height="16" viewBox="0 0 16 16" fill="none" xmlns="http://www.w3.org/2000/svg">
<g clip-path="url(#clip0_877_995)">
<path d="M11.9803 1.16806C12.6519 1.16506 13.1133 1.16376 13.4648 1.20214C13.5791 1.21462 13.6745 1.23069 13.7556 1.25012L6.66996 8.33577C6.4747 8.53103 6.4747 8.84761 6.66996 9.04287C6.86522 9.23814 7.1818 9.23814 7.37707 9.04287L14.4627 1.95723C14.4821 2.0383 14.4982 2.13377 14.5107 2.248C14.5491 2.59949 14.5478 3.06092 14.5448 3.7325L14.5374 5.38726C14.5362 5.6634 14.759 5.88825 15.0352 5.88948C15.3113 5.89072 15.5362 5.66786 15.5374 5.39172L15.5449 3.70716C15.5477 3.07268 15.5501 2.55412 15.5048 2.13944C15.4577 1.70822 15.354 1.32644 15.0997 0.997918C15.0447 0.926802 14.9853 0.85928 14.922 0.79572C14.857 0.730542 14.7878 0.669537 14.7149 0.613099C14.3864 0.358858 14.0046 0.255145 13.5734 0.208053C13.1587 0.162767 12.6402 0.16509 12.0057 0.167933L10.3211 0.175449C10.045 0.176681 9.82212 0.401535 9.82335 0.677674C9.82458 0.953814 10.0494 1.17667 10.3256 1.17544L11.9803 1.16806Z" fill="#AE6E00"/>
<path d="M8.67233 2.29466C8.26858 2.28982 7.82385 2.28982 7.33517 2.28982H7.30284C6.07848 2.28982 5.11875 2.28981 4.35733 2.37231C3.5803 2.45649 2.95071 2.63137 2.41316 3.02192C2.08774 3.25836 1.80155 3.54455 1.56511 3.86998C1.17456 4.40753 0.999679 5.03712 0.915493 5.81414C0.832998 6.57556 0.833002 7.5353 0.833008 8.75966V8.81999C0.833002 10.0443 0.832998 11.0041 0.915493 11.7655C0.999679 12.5425 1.17456 13.1721 1.56511 13.7097C1.80155 14.0351 2.08773 14.3213 2.41317 14.5577C2.95071 14.9483 3.5803 15.1232 4.35733 15.2073C5.11874 15.2898 6.07845 15.2898 7.30278 15.2898H7.36319C8.58752 15.2898 9.54728 15.2898 10.3087 15.2073C11.0857 15.1232 11.7153 14.9483 12.2529 14.5577C12.5783 14.3213 12.8645 14.0351 13.1009 13.7097C13.4915 13.1721 13.6663 12.5425 13.7505 11.7655C13.833 11.0041 13.833 10.0444 13.833 8.82005V8.78752C13.833 8.29889 13.833 7.85421 13.8282 7.4505C13.8249 7.17437 13.5983 6.95321 13.3222 6.95652C13.0461 6.95983 12.8249 7.18636 12.8282 7.46248C12.833 7.85966 12.833 8.2987 12.833 8.78982C12.833 10.0509 12.8323 10.9565 12.7563 11.6578C12.6814 12.3497 12.5379 12.7832 12.2919 13.1219C12.1171 13.3624 11.9056 13.5739 11.6651 13.7487C11.3264 13.9948 10.8929 14.1382 10.201 14.2132C9.49968 14.2891 8.59406 14.2898 7.33301 14.2898C6.07196 14.2898 5.16634 14.2891 4.46504 14.2132C3.7731 14.1382 3.33962 13.9948 3.00095 13.7487C2.76042 13.5739 2.54889 13.3624 2.37413 13.1219C2.12807 12.7832 1.98464 12.3497 1.90968 11.6578C1.83369 10.9565 1.83301 10.0509 1.83301 8.78982C1.83301 7.52877 1.83369 6.62315 1.90968 5.92185C1.98464 5.22991 2.12807 4.79643 2.37413 4.45776C2.54889 4.21723 2.76041 4.0057 3.00095 3.83094C3.33962 3.58488 3.7731 3.44146 4.46504 3.36649C5.16634 3.29051 6.07196 3.28982 7.33301 3.28982C7.82413 3.28982 8.26317 3.28983 8.66035 3.29459C8.93647 3.2979 9.163 3.07674 9.16631 2.80062C9.16962 2.5245 8.94846 2.29797 8.67233 2.29466Z" fill="#AE6E00"/>
<path d="M11.9803 1.16806C12.6519 1.16506 13.1133 1.16376 13.4648 1.20214C13.5791 1.21462 13.6745 1.23069 13.7556 1.25012L6.66996 8.33577C6.4747 8.53103 6.4747 8.84761 6.66996 9.04287C6.86522 9.23814 7.1818 9.23814 7.37707 9.04287L14.4627 1.95723C14.4821 2.0383 14.4982 2.13377 14.5107 2.248C14.5491 2.59949 14.5478 3.06092 14.5448 3.7325L14.5374 5.38726C14.5362 5.6634 14.759 5.88825 15.0352 5.88948C15.3113 5.89072 15.5362 5.66786 15.5374 5.39172L15.5449 3.70716C15.5477 3.07268 15.5501 2.55412 15.5048 2.13944C15.4577 1.70822 15.354 1.32644 15.0997 0.997918C15.0447 0.926802 14.9853 0.85928 14.922 0.79572C14.857 0.730542 14.7878 0.669537 14.7149 0.613099C14.3864 0.358858 14.0046 0.255145 13.5734 0.208053C13.1587 0.162767 12.6402 0.16509 12.0057 0.167933L10.3211 0.175449C10.045 0.176681 9.82212 0.401535 9.82335 0.677674C9.82458 0.953814 10.0494 1.17667 10.3256 1.17544L11.9803 1.16806Z" stroke="#AE6E00" stroke-linecap="round"/>
<path d="M8.67233 2.29466C8.26858 2.28982 7.82385 2.28982 7.33517 2.28982H7.30284C6.07848 2.28982 5.11875 2.28981 4.35733 2.37231C3.5803 2.45649 2.95071 2.63137 2.41316 3.02192C2.08774 3.25836 1.80155 3.54455 1.56511 3.86998C1.17456 4.40753 0.999679 5.03712 0.915493 5.81414C0.832998 6.57556 0.833002 7.5353 0.833008 8.75966V8.81999C0.833002 10.0443 0.832998 11.0041 0.915493 11.7655C0.999679 12.5425 1.17456 13.1721 1.56511 13.7097C1.80155 14.0351 2.08773 14.3213 2.41317 14.5577C2.95071 14.9483 3.5803 15.1232 4.35733 15.2073C5.11874 15.2898 6.07845 15.2898 7.30278 15.2898H7.36319C8.58752 15.2898 9.54728 15.2898 10.3087 15.2073C11.0857 15.1232 11.7153 14.9483 12.2529 14.5577C12.5783 14.3213 12.8645 14.0351 13.1009 13.7097C13.4915 13.1721 13.6663 12.5425 13.7505 11.7655C13.833 11.0041 13.833 10.0444 13.833 8.82005V8.78752C13.833 8.29889 13.833 7.85421 13.8282 7.4505C13.8249 7.17437 13.5983 6.95321 13.3222 6.95652C13.0461 6.95983 12.8249 7.18636 12.8282 7.46248C12.833 7.85966 12.833 8.2987 12.833 8.78982C12.833 10.0509 12.8323 10.9565 12.7563 11.6578C12.6814 12.3497 12.5379 12.7832 12.2919 13.1219C12.1171 13.3624 11.9056 13.5739 11.6651 13.7487C11.3264 13.9948 10.8929 14.1382 10.201 14.2132C9.49968 14.2891 8.59406 14.2898 7.33301 14.2898C6.07196 14.2898 5.16634 14.2891 4.46504 14.2132C3.7731 14.1382 3.33962 13.9948 3.00095 13.7487C2.76042 13.5739 2.54889 13.3624 2.37413 13.1219C2.12807 12.7832 1.98464 12.3497 1.90968 11.6578C1.83369 10.9565 1.83301 10.0509 1.83301 8.78982C1.83301 7.52877 1.83369 6.62315 1.90968 5.92185C1.98464 5.22991 2.12807 4.79643 2.37413 4.45776C2.54889 4.21723 2.76041 4.0057 3.00095 3.83094C3.33962 3.58488 3.7731 3.44146 4.46504 3.36649C5.16634 3.29051 6.07196 3.28982 7.33301 3.28982C7.82413 3.28982 8.26317 3.28983 8.66035 3.29459C8.93647 3.2979 9.163 3.07674 9.16631 2.80062C9.16962 2.5245 8.94846 2.29797 8.67233 2.29466Z" stroke="#AE6E00" stroke-linecap="round"/>
</g>
<defs>
<clipPath id="clip0_877_995">
<rect width="16" height="16" fill="white"/>
</clipPath>
</defs>
</svg>
