<svg width="21" height="17" viewBox="0 0 21 17" fill="none" xmlns="http://www.w3.org/2000/svg">
  <g clip-path="url(#clip0_3970_13487)">
    <path d="M18.7944 4.27438C18.8071 4.45522 18.8071 4.63605 18.8071 4.81855C18.8071 10.3794 14.5055 16.7927 6.63984 16.7927V16.7894C4.31629 16.7927 2.04101 16.1377 0.0849609 14.9027C0.422824 14.9427 0.76238 14.9627 1.10278 14.9636C3.02835 14.9652 4.89887 14.3294 6.41375 13.1586C4.58387 13.1244 2.97924 11.9502 2.41867 10.2361C3.05968 10.3577 3.72016 10.3327 4.34932 10.1636C2.35432 9.76688 0.919034 8.04188 0.919034 6.03855C0.919034 6.02022 0.919034 6.00272 0.919034 5.98522C1.51347 6.31105 2.17903 6.49188 2.85984 6.51189C0.980848 5.27605 0.401654 2.81605 1.53633 0.892719C3.70746 3.52189 6.91081 5.12022 10.3496 5.28939C10.0049 3.82772 10.4757 2.29605 11.5867 1.26855C13.309 -0.324781 16.0179 -0.243115 17.6369 1.45105C18.5946 1.26522 19.5125 0.919385 20.3525 0.429385C20.0333 1.40355 19.3652 2.23105 18.4727 2.75689C19.3203 2.65855 20.1484 2.43522 20.9283 2.09439C20.3542 2.94105 19.6311 3.67855 18.7944 4.27438Z" fill="#1D9BF0"/>
  </g>
  <defs>
    <clipPath id="clip0_3970_13487">
      <rect width="21" height="17" fill="white"/>
    </clipPath>
  </defs>
</svg>
