<svg width="24" height="24" viewBox="0 0 24 24" fill="none" xmlns="http://www.w3.org/2000/svg">
  <path d="M4 15L20 15" stroke="#9D9D9D" stroke-width="2" stroke-linecap="round" stroke-linejoin="round"/>
  <path d="M4 15L20 15" stroke="black" stroke-opacity="0.2" stroke-width="2" stroke-linecap="round" stroke-linejoin="round"/>
  <path d="M4 9L20 9" stroke="#9D9D9D" stroke-width="2" stroke-linecap="round" stroke-linejoin="round"/>
  <path d="M4 9L20 9" stroke="black" stroke-opacity="0.2" stroke-width="2" stroke-linecap="round" stroke-linejoin="round"/>
  <circle cx="12" cy="12" r="9" stroke="#9D9D9D" stroke-width="2" stroke-linecap="round" stroke-linejoin="round"/>
  <circle cx="12" cy="12" r="9" stroke="black" stroke-opacity="0.2" stroke-width="2" stroke-linecap="round" stroke-linejoin="round"/>
  <path d="M12.0004 20.818L11.2862 21.5179C11.4742 21.7098 11.7317 21.818 12.0004 21.818C12.2691 21.818 12.5265 21.7098 12.7146 21.5179L12.0004 20.818ZM12.0004 3.18164L12.7146 2.48174C12.5265 2.2898 12.2691 2.18164 12.0004 2.18164C11.7317 2.18164 11.4742 2.2898 11.2861 2.48174L12.0004 3.18164ZM14.6004 11.9998C14.6004 15.1608 13.3373 18.0249 11.2862 20.1181L12.7146 21.5179C15.1173 19.066 16.6004 15.7051 16.6004 11.9998H14.6004ZM11.2861 3.88154C13.3373 5.97477 14.6004 8.83879 14.6004 11.9998H16.6004C16.6004 8.29453 15.1173 4.93365 12.7146 2.48174L11.2861 3.88154ZM9.40039 11.9998C9.40039 8.83879 10.6634 5.97477 12.7146 3.88154L11.2861 2.48174C8.88347 4.93365 7.40039 8.29453 7.40039 11.9998H9.40039ZM12.7146 20.1181C10.6634 18.0249 9.40039 15.1608 9.40039 11.9998H7.40039C7.40039 15.7051 8.88348 19.066 11.2862 21.5179L12.7146 20.1181Z" fill="#9D9D9D"/>
  <path d="M12.0004 20.818L11.2862 21.5179C11.4742 21.7098 11.7317 21.818 12.0004 21.818C12.2691 21.818 12.5265 21.7098 12.7146 21.5179L12.0004 20.818ZM12.0004 3.18164L12.7146 2.48174C12.5265 2.2898 12.2691 2.18164 12.0004 2.18164C11.7317 2.18164 11.4742 2.2898 11.2861 2.48174L12.0004 3.18164ZM14.6004 11.9998C14.6004 15.1608 13.3373 18.0249 11.2862 20.1181L12.7146 21.5179C15.1173 19.066 16.6004 15.7051 16.6004 11.9998H14.6004ZM11.2861 3.88154C13.3373 5.97477 14.6004 8.83879 14.6004 11.9998H16.6004C16.6004 8.29453 15.1173 4.93365 12.7146 2.48174L11.2861 3.88154ZM9.40039 11.9998C9.40039 8.83879 10.6634 5.97477 12.7146 3.88154L11.2861 2.48174C8.88347 4.93365 7.40039 8.29453 7.40039 11.9998H9.40039ZM12.7146 20.1181C10.6634 18.0249 9.40039 15.1608 9.40039 11.9998H7.40039C7.40039 15.7051 8.88348 19.066 11.2862 21.5179L12.7146 20.1181Z" fill="black" fill-opacity="0.2"/>
</svg>
